<svg xmlns="http://www.w3.org/2000/svg" width="76" height="54" viewBox="0 0 76 54">
  <defs>
    <style>
      .cls-1 {
        fill: #bebebe;
        fill-rule: evenodd;
      }
    </style>
  </defs>
  <path id="icon--swap.svg" class="cls-1" d="M571.331,22.034h1.052c10.307,0,15.614,0,25.922,0a3.3,3.3,0,0,1,3.5,2.537,3.347,3.347,0,0,1-2.975,4.179c-0.3.016-.593,0.009-0.89,0.009h-26.55c0.26,0.29.419,0.484,0.6,0.661q4.466,4.493,8.935,8.982a3,3,0,0,1,.907,3.226,3.293,3.293,0,0,1-2.641,2.376,2.966,2.966,0,0,1-2.437-.645,8.4,8.4,0,0,1-.816-0.77Q568.561,35.063,561.2,27.53a3.325,3.325,0,0,1,0-5.1q7.425-7.633,14.85-15.266a3.326,3.326,0,0,1,5.1.011,3.521,3.521,0,0,1-.277,4.85q-4.414,4.652-8.853,9.28C571.829,21.492,571.652,21.688,571.331,22.034Zm53.337,21.917h3.894q-15.424,0-30.85,0a3.319,3.319,0,0,1-3.537-2.587,3.354,3.354,0,0,1,2.971-4.127c0.3-.017.593-0.01,0.89-0.01h26.585c-0.289-.315-0.458-0.513-0.641-0.7q-4.44-4.467-8.881-8.932a3.078,3.078,0,0,1-.948-3.227A3.3,3.3,0,0,1,616.8,22a3.174,3.174,0,0,1,3.019,1.059l7.656,7.827q3.645,3.726,7.288,7.452a3.414,3.414,0,0,1,.026,5.242q-7.5,7.666-14.995,15.334a3.114,3.114,0,0,1-3.311.944,3.272,3.272,0,0,1-2.391-2.633,3.534,3.534,0,0,1,1.074-3.3q4.387-4.573,8.756-9.167C624.122,44.542,624.32,44.325,624.668,43.951Z" transform="translate(-560 -6)"/>
</svg>
