<svg xmlns="http://www.w3.org/2000/svg" width="38" height="38" viewBox="0 0 38 38">
  <defs>
    <style>
      .cls-1 {
        fill: #dbab30;
        fill-rule: evenodd;
      }
    </style>
  </defs>
  <path id="item--type-indicator--bobomb.svg" class="cls-1" d="M121,0l-1.5,3h3Zm0,38-1.5-3h3Zm19-19-3-1.5v3Zm-38,0,3-1.5v3ZM124.3,0.289l-2,2.694L125.256,3.5Zm-6.6,37.423L116.744,34.5l2.955,0.521ZM139.711,22.3l-2.694-2L136.5,23.256Zm-37.422-6.6,3.215-.956L104.983,17.7ZM117.7,0.289L116.744,3.5l2.955-.521Zm6.6,37.423-2-2.694,2.955-.521ZM139.711,15.7l-3.215-.956,0.521,2.954Zm-37.422,6.6,2.694-2,0.521,2.954ZM127.5,1.146l-2.435,2.306,2.819,1.026Zm-13,35.708-0.384-3.332,2.819,1.026ZM138.854,25.5l-2.306-2.436-1.026,2.819Zm-35.708-13,3.332-.383-1.026,2.819ZM114.5,1.146l-0.384,3.332,2.819-1.026Zm13,35.708-2.435-2.306,2.819-1.026ZM138.854,12.5l-3.332-.383,1.026,2.819Zm-35.708,13,2.306-2.436,1.026,2.819ZM130.5,2.546l-2.8,1.848,2.6,1.5Zm-19,32.909,0.2-3.348,2.6,1.5ZM137.454,28.5l-1.848-2.8-1.5,2.6Zm-32.908-19,3.348,0.2-1.5,2.6ZM111.5,2.546l0.2,3.348,2.6-1.5Zm19,32.909-2.8-1.848,2.6-1.5ZM137.454,9.5l-3.348.2,1.5,2.6Zm-32.908,19,1.848-2.8,1.5,2.6ZM133.213,4.445l-3.077,1.334,2.3,1.928Zm-24.426,29.11,0.779-3.262,2.3,1.928Zm26.768-2.342-1.334-3.078-1.928,2.3ZM106.445,6.787l3.262,0.779-1.928,2.3Zm2.342-2.342,0.779,3.262,2.3-1.928Zm24.426,29.11-3.077-1.334,2.3-1.928Zm2.342-26.768-3.262.779,1.928,2.3Zm-29.11,24.426,1.334-3.078,1.928,2.3Z" transform="translate(-102)"/>
</svg>
